<svg xmlns="http://www.w3.org/2000/svg" viewBox="0 0 64 64">
  <defs>
    <linearGradient id="gearGradient" x1="0%" y1="0%" x2="100%" y2="100%">
      <stop offset="0%" stop-color="#1d4ed8"/>
      <stop offset="100%" stop-color="#0f172a"/>
    </linearGradient>
  </defs>
  <rect width="64" height="64" rx="12" fill="#0b1220"/>
  <path fill="url(#gearGradient)" d="M28.5 10h7l1 5.2c1.4.4 2.7 1 4 1.8l4.6-2.9 5 5-2.9 4.6c.8 1.3 1.4 2.6 1.8 4l5.2 1v7l-5.2 1c-.4 1.4-1 2.7-1.8 4l2.9 4.6-5 5-4.6-2.9c-1.3.8-2.6 1.4-4 1.8l-1 5.2h-7l-1-5.2c-1.4-.4-2.7-1-4-1.8l-4.6 2.9-5-5 2.9-4.6c-.8-1.3-1.4-2.6-1.8-4l-5.2-1v-7l5.2-1c.4-1.4 1-2.7 1.8-4l-2.9-4.6 5-5 4.6 2.9c1.3-.8 2.6-1.4 4-1.8L28.5 10zm3.5 12a10 10 0 100 20 10 10 0 000-20z"/>
  <circle cx="32" cy="32" r="6" fill="#f97316"/>
</svg>
