<svg xmlns="http://www.w3.org/2000/svg" width="1200" height="630" viewBox="0 0 1200 630">
  <defs>
    <linearGradient id="bg" x1="0%" y1="0%" x2="100%" y2="100%">
      <stop offset="0%" stop-color="#0b1220"/>
      <stop offset="100%" stop-color="#1f2937"/>
    </linearGradient>
  </defs>
  <rect width="1200" height="630" fill="url(#bg)"/>
  <g fill="#1d4ed8" opacity="0.2">
    <path d="M150 100h40l6 26c8 2 15 5 22 9l23-15 29 29-15 23c4 7 7 14 9 22l26 6v40l-26 6c-2 8-5 15-9 22l15 23-29 29-23-15c-7 4-14 7-22 9l-6 26h-40l-6-26c-8-2-15-5-22-9l-23 15-29-29 15-23c-4-7-7-14-9-22l-26-6v-40l26-6c2-8 5-15 9-22l-15-23 29-29 23 15c7-4 14-7 22-9l6-26zm20 60a70 70 0 100 140 70 70 0 000-140z"/>
  </g>
  <text x="80" y="360" fill="#f8fafc" font-family="'Inter', 'Segoe UI', sans-serif" font-size="96" font-weight="700">AutoGest</text>
  <text x="80" y="440" fill="#e2e8f0" font-family="'Inter', 'Segoe UI', sans-serif" font-size="40">Sistema de Gestão para Oficinas Mecânicas</text>
  <text x="80" y="500" fill="#f97316" font-family="'Inter', 'Segoe UI', sans-serif" font-size="32">Dashboard · Ordens · Veículos · Clientes</text>
</svg>
